<svg 
 xmlns="http://www.w3.org/2000/svg"
 xmlns:xlink="http://www.w3.org/1999/xlink"
 width="122px" height="120px">
<defs>
<filter id="Filter_0">
    <feFlood flood-color="rgb(211, 211, 211)" flood-opacity="1" result="floodOut" />
    <feComposite operator="atop" in="floodOut" in2="SourceGraphic" result="compOut" />
    <feBlend mode="normal" in="compOut" in2="SourceGraphic" />
</filter>

</defs>
<g filter="url(#Filter_0)">
<path fill-rule="evenodd"  fill="rgb(63, 75, 87)"
 d="M0.093,109.192 C2.430,101.996 6.026,95.159 9.083,88.323 C9.443,87.424 10.881,87.424 11.421,87.963 C14.477,91.202 17.893,94.440 19.871,98.398 L20.051,98.398 C41.987,100.017 63.204,81.307 78.307,67.635 C95.749,51.983 111.571,32.914 117.864,10.067 C118.224,7.188 118.583,4.130 118.583,1.072 C118.583,-0.368 120.561,-0.368 120.741,1.072 C120.741,1.611 120.741,2.151 120.741,2.691 C121.461,2.691 122.000,3.230 122.000,4.130 C121.820,6.109 121.280,8.088 120.921,10.067 C119.483,58.820 70.935,105.774 23.467,108.832 C25.086,111.710 26.524,114.768 28.322,117.647 C29.221,118.906 27.782,120.165 26.524,119.985 C17.533,118.726 9.443,114.409 1.171,111.171 C0.452,110.991 -0.267,110.271 0.093,109.192 ZM24.186,116.388 C23.107,114.049 22.389,111.710 21.130,109.372 C20.770,108.472 21.310,107.752 21.849,107.573 C21.849,107.033 22.208,106.673 22.748,106.493 C65.721,99.297 100.603,69.973 113.549,30.215 C105.098,45.867 92.152,59.539 79.386,71.053 C70.037,79.508 60.148,87.064 49.359,93.360 C40.908,98.218 30.300,102.715 20.591,99.657 L20.591,99.657 C21.130,101.096 18.972,101.816 18.253,100.736 C15.916,97.678 13.578,94.800 11.061,92.101 C8.544,97.678 5.846,103.255 3.869,109.012 C10.521,111.530 17.174,114.769 24.186,116.388 Z"/>
</g>
</svg>